<svg width="40" height="40" viewBox="0 0 40 40" fill="none" xmlns="http://www.w3.org/2000/svg">
<path d="M25.1434 20.7813C24.7121 21.3204 23.9255 21.4078 23.3864 20.9766L21.2507 19.268V25.0005C21.2507 25.6908 20.691 26.2505 20.0007 26.2505C19.3103 26.2505 18.7507 25.6908 18.7507 25.0005V19.2679L16.6148 20.9766C16.0757 21.4078 15.2891 21.3204 14.8579 20.7813C14.4266 20.2423 14.514 19.4556 15.0531 19.0244L19.2153 15.6946C19.4274 15.5231 19.6967 15.4196 19.9901 15.4172C19.9936 15.4171 19.9972 15.4171 20.0007 15.4171L20.0047 15.4171C20.3032 15.4181 20.5771 15.5237 20.7916 15.6991L24.9482 19.0244C25.4872 19.4556 25.5746 20.2423 25.1434 20.7813Z" fill="#757575"/>
<path fill-rule="evenodd" clip-rule="evenodd" d="M13.9674 11.9905C15.5703 9.50012 18.3681 7.84766 21.5538 7.84766C26.3547 7.84766 30.2791 11.6001 30.5542 16.3319C30.6599 16.3275 30.7661 16.3252 30.8728 16.3252C34.9942 16.3252 38.3354 19.6664 38.3354 23.7879C38.3354 27.9093 34.9942 31.2505 30.8728 31.2505H11.4584C6.05019 31.2505 1.66602 26.8663 1.66602 21.4581C1.66602 16.05 6.05019 11.6658 11.4584 11.6658C12.3245 11.6658 13.1657 11.7785 13.9674 11.9905ZM21.5538 10.3477C18.97 10.3477 16.735 11.8515 15.6809 14.0373C15.3975 14.625 14.7097 14.8959 14.1017 14.6593C13.2838 14.341 12.393 14.1658 11.4584 14.1658C7.43091 14.1658 4.16602 17.4307 4.16602 21.4581C4.16602 25.4856 7.43091 28.7505 11.4584 28.7505H30.8728C33.6135 28.7505 35.8354 26.5286 35.8354 23.7879C35.8354 21.0471 33.6135 18.8252 30.8728 18.8252C30.4268 18.8252 29.9964 18.8838 29.588 18.9928C29.1877 19.0998 28.7604 19.0013 28.4471 18.7301C28.1339 18.4588 27.9755 18.0499 28.0241 17.6384C28.0541 17.3847 28.0696 17.1261 28.0696 16.8634C28.0696 13.2649 25.1524 10.3477 21.5538 10.3477Z" fill="#757575"/>
</svg>
