<svg width="16" height="16" viewBox="0 0 16 16" fill="none" xmlns="http://www.w3.org/2000/svg">
<path d="M4.00002 7.99905C3.99989 8.397 3.84168 8.77861 3.56018 9.05991C3.27869 9.34122 2.89698 9.49918 2.49902 9.49905C2.10107 9.49891 1.71946 9.3407 1.43816 9.05921C1.15685 8.77772 0.998891 8.396 0.999024 7.99805C0.999156 7.60009 1.15737 7.21848 1.43886 6.93718C1.72036 6.65588 2.10207 6.49791 2.50012 6.49805C2.89798 6.49818 3.27959 6.65639 3.56089 6.93789C3.8422 7.21938 4.00016 7.60109 4.00002 7.99905Z" fill="#5A5A5A"/>
<path d="M9.50012 7.99905C9.49989 8.397 9.34168 8.77861 9.06018 9.05991C8.77869 9.34122 8.39698 9.49918 7.99902 9.49905C7.60107 9.49891 7.21946 9.3407 6.93816 9.05921C6.65685 8.77772 6.49889 8.396 6.49902 7.99805C6.49916 7.60009 6.65737 7.21848 6.93886 6.93718C7.22036 6.65588 7.60207 6.49791 8.00002 6.49805C8.39798 6.49818 8.77959 6.65639 9.06089 6.93789C9.3422 7.21938 9.50016 7.60109 9.50012 7.99905Z" fill="#5A5A5A"/>
<path d="M13.5 9.49905C13.6971 9.49898 13.8922 9.4601 14.0742 9.38464C14.2562 9.30917 14.4216 9.19859 14.5609 9.05921C14.7002 8.91983 14.8107 8.75438 14.886 8.5723C14.9613 8.39023 15.0001 8.1951 15 7.99805C15 7.801 14.9611 7.60589 14.8856 7.42387C14.8101 7.24184 14.6996 7.07647 14.5602 6.93718C14.4208 6.79789 14.2554 6.68742 14.0733 6.61207C13.8912 6.53673 13.6961 6.49798 13.499 6.49805C13.1011 6.49818 12.7195 6.65639 12.4382 6.93789C12.1569 7.21938 11.9989 7.60109 11.999 7.99905C11.9992 8.397 12.1574 8.77861 12.4389 9.05991C12.7204 9.34122 13.1021 9.49918 13.5 9.49905Z" fill="#5A5A5A"/>
</svg>
